<svg xmlns="http://www.w3.org/2000/svg" version="1.1" xmlns:xlink="http://www.w3.org/1999/xlink" xmlns:svgjs="http://svgjs.dev/svgjs" width="1024px" height="1024px"><svg xmlns="http://www.w3.org/2000/svg" id="SvgjsSvg1003" viewBox="0 0 206.54 206.54" width="1024px" height="1024px">
  <defs>
    <style>
      .cls-1 {
        fill: #fe5900;
      }
    </style>
  </defs>
  <polygon class="cls-1" points="57.79 103.17 103.27 148.66 148.85 103.17 103.27 57.69 57.79 103.17"></polygon>
  <path class="cls-1" d="M103.27,0C46.24,0,0,46.23,0,103.27s46.24,103.27,103.27,103.27,103.27-46.24,103.27-103.27S160.3,0,103.27,0ZM166.97,109.18l-57.6,57.69c-1.66,1.66-3.88,2.5-6.1,2.5s-4.34-.84-6.01-2.5l-57.59-57.69c-3.42-3.33-3.42-8.69,0-12.02l57.59-57.68c3.33-3.33,8.78-3.33,12.11,0l57.6,57.68c3.33,3.33,3.33,8.69,0,12.02Z"></path>
</svg><style>@media (prefers-color-scheme: light) { :root { filter: none; } }
@media (prefers-color-scheme: dark) { :root { filter: none; } }
</style></svg>