<svg xmlns="http://www.w3.org/2000/svg" width="1024" height="1024"><svg xmlns="http://www.w3.org/2000/svg" id="SvgjsSvg1003" width="1024" height="1024" viewBox="0 0 206.54 206.54"><defs><style>.cls-1{fill:#fe5900}@media (prefers-color-scheme:light){:root{filter:none}}@media (prefers-color-scheme:dark){:root{filter:none}}</style></defs><path d="m57.79 103.17 45.48 45.49 45.58-45.49-45.58-45.48-45.48 45.48z" class="cls-1"/><path d="M103.27 0C46.24 0 0 46.23 0 103.27s46.24 103.27 103.27 103.27 103.27-46.24 103.27-103.27S160.3 0 103.27 0Zm63.7 109.18-57.6 57.69c-1.66 1.66-3.88 2.5-6.1 2.5s-4.34-.84-6.01-2.5l-57.59-57.69c-3.42-3.33-3.42-8.69 0-12.02l57.59-57.68c3.33-3.33 8.78-3.33 12.11 0l57.6 57.68a8.48 8.48 0 0 1 0 12.02Z" class="cls-1"/></svg></svg>
