<svg xmlns="http://www.w3.org/2000/svg" id="design" width="1024" height="110.342" viewBox="0 0 2415.08 260.24"><defs><style>.cls-1{fill:#fe5900}</style></defs><path d="M2397.85 185.41c-6.4 0-9.61-3.39-9.61-10.17V11.72h-27.39v172c0 9.23 2.16 15.82 6.5 19.77 4.33 3.95 11.3 5.93 20.89 5.93h26.84v-24.01h-17.23ZM2324.35 182.31v-66.38c0-14.89-4.53-26.26-13.59-34.21-8.78-8.04-21.45-12.11-37.81-12.11-36.15 0-55.75 13.96-58.7 41.79h27.36c1.11-6.93 3.98-11.83 8.51-14.7 4.62-2.96 11.65-4.53 20.89-4.53s16.27 2.03 20.62 6.01c4.44 3.88 6.75 10.35 6.75 19.14v7.67l-41.23 2.22c-16.18.92-28.57 5.36-36.98 13.31-8.51 7.67-12.76 17.84-12.76 30.51s4.62 23.3 13.87 31.06c9.24 7.49 21.63 11.28 37.26 11.28 21.63 0 36.7-7.3 45.21-22v3.97c0 9.34 4.9 14.05 14.7 14.05h22v-22.56h-11.56c-3.05 0-4.53-1.48-4.53-4.53Zm-25.98-27.37c0 11.28-3.33 20.15-9.89 26.53-6.56 6.2-15.53 9.34-26.81 9.34-8.32 0-14.88-1.94-19.78-5.64-4.71-3.79-7.03-8.78-7.03-14.98s2.13-10.63 6.47-14.42c4.35-3.98 10.72-6.2 19.23-6.75l37.81-2.87v8.78ZM2304.28 8.32h-26.25l-18.4 41.79h23.76l20.89-41.79zM2155.4 32.9h-27.39v40.67h-59.59c-16 0-25.89 7.34-29.66 22.03V73.57h-24.29v135.85h27.39v-83.88c0-18.64 8.01-27.96 24.01-27.96H2128v79.08c0 11.67 2.64 20.05 7.9 25.14 5.27 5.08 13.84 7.63 25.7 7.63h36.43v-24.01h-28.24c-5.27 0-9.04-1.04-11.3-3.11-2.07-2.26-3.11-5.93-3.11-11.02V97.58h42.65V73.57h-42.65V32.9ZM1918.22 69.61c-20.71 0-37.63 6.56-50.57 19.78-13.04 13.13-19.51 30.51-19.51 51.96s6.47 38.92 19.51 52.23c12.94 13.22 29.86 19.79 50.57 19.79s37.72-6.56 50.48-19.79c13.03-13.31 19.51-30.79 19.51-52.23s-6.47-38.83-19.51-51.96c-12.76-13.22-29.58-19.78-50.48-19.78Zm30.14 105.95c-7.49 8.6-17.56 12.94-30.14 12.94s-22.56-4.35-30.23-12.94c-7.77-8.69-11.65-20.06-11.65-34.21s3.88-25.24 11.65-33.93c7.67-8.6 17.75-12.94 30.23-12.94s22.65 4.34 30.14 12.94c7.77 8.69 11.65 19.97 11.65 33.93s-3.88 25.52-11.65 34.21ZM1765.87 69.61c-22.28 0-38 7.77-47.24 23.2V73.58h-24.22v186.65h27.36v-67.49c9.06 13.77 23.76 20.62 44.1 20.62s35.13-6.56 47.15-19.79c12.02-13.31 18.03-30.79 18.03-52.23s-6.01-38.83-18.03-51.96c-12.02-13.22-27.83-19.78-47.15-19.78Zm25.7 105.95c-7.58 8.6-17.47 12.94-29.68 12.94s-22.1-4.35-29.68-12.94c-7.3-8.69-11-20.06-11-34.21s3.7-25.24 11-33.93c7.58-8.6 17.47-12.94 29.68-12.94s22.1 4.34 29.68 12.94c7.49 8.69 11.28 19.97 11.28 33.93s-3.79 25.52-11.28 34.21ZM1575.42 8.32h-26.25l-18.4 41.79h23.76l20.89-41.79zM1542.7 169.27l-40.12-95.68h-30.26v-.02h-30.5l-41.52 106.48-41.8-106.48H1328l56.49 135.85h31.06l56.23-134.56v.02l56.49 125.18-11.83 25.7c-2.87 6.66-8.41 9.89-16.73 9.89h-24.22v24.59H1506c8.97 0 15.99-1.66 20.89-5.08 4.9-3.14 8.88-8.41 12.11-15.81l74.61-165.76h-30.79l-40.12 95.68ZM1250.1 69.61c-20.71 0-37.63 6.56-50.57 19.78-13.03 13.13-19.51 30.51-19.51 51.96s6.47 38.92 19.51 52.23c12.94 13.22 29.86 19.79 50.57 19.79s37.72-6.56 50.48-19.79c13.03-13.31 19.51-30.79 19.51-52.23s-6.47-38.83-19.51-51.96c-12.76-13.22-29.58-19.78-50.48-19.78Zm30.23 105.95c-7.58 8.6-17.66 12.94-30.23 12.94s-22.56-4.35-30.23-12.94c-7.77-8.69-11.65-20.06-11.65-34.21s3.88-25.24 11.65-33.93c7.67-8.6 17.75-12.94 30.23-12.94s22.65 4.34 30.23 12.94c7.67 8.69 11.56 19.97 11.56 33.93s-3.88 25.52-11.56 34.21ZM1097.74 69.61c-22.28 0-38 7.77-47.15 23.2V73.58h-24.31v186.65h27.36v-67.49c9.06 13.77 23.76 20.62 44.1 20.62s35.13-6.56 47.15-19.79c12.02-13.31 18.03-30.79 18.03-52.23s-6.01-38.83-18.03-51.96c-12.02-13.22-27.83-19.78-47.15-19.78Zm25.7 105.95c-7.58 8.6-17.47 12.94-29.68 12.94s-22.09-4.35-29.68-12.94c-7.3-8.69-11-20.06-11-34.21s3.7-25.24 11-33.93c7.58-8.6 17.47-12.94 29.68-12.94s22.1 4.34 29.68 12.94c7.49 8.69 11.28 19.97 11.28 33.93s-3.79 25.52-11.28 34.21ZM989.76 182.31v-66.38c0-14.89-4.53-26.26-13.59-34.21-8.78-8.04-21.45-12.11-37.81-12.11-36.15 0-55.75 13.96-58.8 41.79h27.46c1.11-6.93 3.98-11.83 8.41-14.7 4.71-2.96 11.74-4.53 20.99-4.53s16.27 2.03 20.62 6.01c4.44 3.88 6.75 10.35 6.75 19.14v7.67l-41.23 2.22c-16.18.92-28.57 5.36-36.98 13.31-8.51 7.67-12.76 17.84-12.76 30.51s4.62 23.3 13.87 31.06c9.24 7.49 21.63 11.28 37.26 11.28 21.63 0 36.7-7.3 45.21-22v3.97c0 9.34 4.9 14.05 14.7 14.05h22v-22.56H994.3c-3.05 0-4.53-1.48-4.53-4.53Zm-25.98-27.37c0 11.28-3.33 20.15-9.89 26.53-6.56 6.2-15.53 9.34-26.81 9.34-8.32 0-14.88-1.94-19.78-5.64-4.71-3.79-7.03-8.78-7.03-14.98s2.13-10.63 6.47-14.42c4.35-3.98 10.72-6.2 19.14-6.75l37.9-2.87v8.78ZM745.29 172.7 684 11.72h-39.54v197.7h27.68V50.69l60.44 158.73h25.14l60.44-158.73v158.73h27.68V11.72H806.3L745.29 172.7zM406.03 6.96c-52.88 0-96.42 39.85-102.43 91.25H160.03L17.75 1.96C10.26-3.12 0 2.24 0 11.39v197.65c0 9.15 10.26 14.52 17.75 9.43l142.46-96.33H303.5c6.01 51.4 49.55 91.34 102.53 91.34 57.04 0 103.26-46.22 103.26-103.27S463.07 6.96 406.03 6.96ZM24.04 185.2V35.25l110.94 74.97L24.04 185.2Zm445.69-69.06-57.6 57.69c-1.66 1.66-3.88 2.5-6.1 2.5s-4.35-.83-6.01-2.5l-57.6-57.69c-3.42-3.33-3.42-8.69 0-12.02l57.6-57.69c3.33-3.33 8.78-3.33 12.11 0l57.6 57.69a8.48 8.48 0 0 1 0 12.02Zm-109.18-6.01 45.48 45.48 45.58-45.48-45.58-45.49-45.48 45.49Z" class="cls-1"/></svg>
