<?xml version="1.0" encoding="UTF-8" standalone="no"?>
<svg
   version="1.1"
   id="svg2"
   xml:space="preserve"
   width="101.47192"
   height="101.47192"
   viewBox="0 0 101.47192 101.47192"
   xmlns="http://www.w3.org/2000/svg"
   xmlns:svg="http://www.w3.org/2000/svg"
   xmlns:rdf="http://www.w3.org/1999/02/22-rdf-syntax-ns#"
   xmlns:cc="http://creativecommons.org/ns#"
   xmlns:dc="http://purl.org/dc/elements/1.1/"><metadata
     id="metadata8"><rdf:RDF><cc:Work
         rdf:about=""><dc:format>image/svg+xml</dc:format><dc:type
           rdf:resource="http://purl.org/dc/dcmitype/StillImage" /></cc:Work></rdf:RDF></metadata><defs
     id="defs6" /><g
     id="g10"
     transform="matrix(1.3333333,0,0,-1.3333333,-0.51354132,93.489598)"><g
       id="g12"
       transform="matrix(0.1,0,0,0.1,0,-10.966819)"><path
         d="m 3.85156,159.469 664.26944,88.648 96.77,453.055 -3.196,-2.199 C 571.063,450.07 307.969,259.813 3.85156,159.469 Z M 582.305,667.414 528.094,657.43 C 433.457,552.66 304.879,479.648 159.32,455.477 L 129.984,407.75 c 181.286,24.176 342.625,120.906 452.321,259.664 z m 66.285,12.274 C 502.031,505.441 302.914,376.992 75.4023,318.996 L 31.6094,247.73 C 300.039,311.973 537.355,472.898 702.758,689.688 Z M 252.086,606.414 236.43,580.953 c 35.133,6.207 67.351,20.16 95.222,40.156 z m 142.633,26.379 C 345.168,593.184 285.531,565.805 220.277,554.668 l -28.429,-46.223 c 104.316,11.598 198.668,62.235 267.98,136.332 l -65.109,-11.984"
         style="fill:#30ad41;fill-opacity:1;fill-rule:nonzero;stroke:none"
         id="path14" /></g></g></svg>
